<svg xmlns="http://www.w3.org/2000/svg" width="1500" height="1000" viewBox="0 0 1500 1000" style="background:#FAFAFA;font-family:Arial,sans-serif;">
<defs>
<marker id="arr" markerWidth="8" markerHeight="8" refX="6" refY="3" orient="auto"><path d="M0,0 L0,6 L8,3 z" fill="#555"/></marker>
</defs>
<text x="750" y="36" text-anchor="middle" font-size="22" font-weight="bold" fill="#1A365D">Phase 02 — Muon Detector Array Wiring Diagram</text>
<text x="750" y="58" text-anchor="middle" font-size="14" fill="#4A5568">Muhlenberg College  ·  8-Detector Plastic Scintillator Array</text>
<line x1="60" y1="68" x2="1440" y2="68" stroke="#CBD5E0" stroke-width="1.5"/>
<rect x="60" y="90" width="200" height="500" rx="6" ry="6" fill="#EBF8FF" stroke="#2B6CB0" stroke-width="2"/>
<rect x="60" y="90" width="200" height="24" rx="6" ry="6" fill="#2B6CB0"/>
<rect x="60" y="102" width="200" height="12" fill="#2B6CB0"/>
<text x="160" y="106" text-anchor="middle" font-size="12" font-weight="bold" fill="#FFFFFF">Arduino Uno  (Master)</text>
<text x="160" y="134" text-anchor="middle" font-size="10" fill="#4A5568">Master Node</text>
<circle cx="260" cy="190" r="5" fill="#C53030"/>
<text x="165" y="194" text-anchor="start" font-size="10" fill="#C53030" font-family="Courier New,monospace">Pin 6  SYNC</text>
<circle cx="260" cy="245" r="5" fill="#C05621"/>
<text x="165" y="249" text-anchor="start" font-size="10" fill="#C05621" font-family="Courier New,monospace">Pin 7  PAUSE</text>
<circle cx="260" cy="320" r="5" fill="#2B6CB0"/>
<text x="165" y="324" text-anchor="start" font-size="10" fill="#2B6CB0" font-family="Courier New,monospace">A4  SDA</text>
<circle cx="260" cy="370" r="5" fill="#276749"/>
<text x="165" y="374" text-anchor="start" font-size="10" fill="#276749" font-family="Courier New,monospace">A5  SCL</text>
<circle cx="260" cy="440" r="5" fill="#718096"/>
<text x="165" y="444" text-anchor="start" font-size="10" fill="#718096" font-family="Courier New,monospace">GND</text>
<circle cx="260" cy="520" r="5" fill="#718096"/>
<text x="165" y="524" text-anchor="start" font-size="10" fill="#718096" font-family="Courier New,monospace">USB / Serial</text>
<path d="M 160,590 L 160,635" stroke="#718096" stroke-width="2" marker-end="url(#arr)"/>
<text x="160" y="652" text-anchor="middle" font-size="10" fill="#718096">To host PC</text>
<text x="160" y="664" text-anchor="middle" font-size="10" fill="#718096">(115200 baud)</text>
<text x="330" y="82" text-anchor="middle" font-size="9" fill="#C53030" font-weight="bold">SYNC</text>
<text x="360" y="82" text-anchor="middle" font-size="9" fill="#C05621" font-weight="bold">PAUSE</text>
<text x="400" y="82" text-anchor="middle" font-size="9" fill="#2B6CB0" font-weight="bold">SDA</text>
<text x="430" y="82" text-anchor="middle" font-size="9" fill="#276749" font-weight="bold">SCL</text>
<rect x="430" y="90" width="60" height="18" rx="3" fill="#FEFCE8" stroke="#DD6B20" stroke-width="1.5"/>
<text x="460" y="103" text-anchor="middle" font-size="10" font-weight="bold" fill="#DD6B20">+5 V</text>
<rect x="394" y="121" width="12" height="28" rx="2" fill="#FFFBEB" stroke="#2B6CB0" stroke-width="1.5"/>
<text x="410" y="139" font-size="9" fill="#2B6CB0">2.2 kΩ</text>
<path d="M 400,108 L 400,121" fill="none" stroke="#2B6CB0" stroke-width="2" stroke-linejoin="round"/>
<path d="M 400,149 L 400,155" fill="none" stroke="#2B6CB0" stroke-width="2" stroke-linejoin="round"/>
<path d="M 400,121 L 460,121 L 460,108" fill="none" stroke="#2B6CB0" stroke-width="1" stroke-dasharray="3,3" stroke-linejoin="round"/>
<rect x="424" y="121" width="12" height="28" rx="2" fill="#FFFBEB" stroke="#276749" stroke-width="1.5"/>
<text x="440" y="139" font-size="9" fill="#276749">2.2 kΩ</text>
<path d="M 430,108 L 430,121" fill="none" stroke="#276749" stroke-width="2" stroke-linejoin="round"/>
<path d="M 430,149 L 430,155" fill="none" stroke="#276749" stroke-width="2" stroke-linejoin="round"/>
<path d="M 430,121 L 460,121" fill="none" stroke="#276749" stroke-width="1" stroke-dasharray="3,3" stroke-linejoin="round"/>
<rect x="530" y="100" width="210" height="155" rx="6" ry="6" fill="#F0FFF4" stroke="#276749" stroke-width="2"/>
<rect x="530" y="100" width="210" height="24" rx="6" ry="6" fill="#276749"/>
<rect x="530" y="112" width="210" height="12" fill="#276749"/>
<text x="635" y="116" text-anchor="middle" font-size="11" font-weight="bold" fill="#FFFFFF">Arduino Nano #1</text>
<text x="635" y="144" text-anchor="middle" font-size="9" fill="#4A5568">(Addr 0x08, ID 1)</text>
<circle cx="530" cy="170" r="4" fill="#C53030"/>
<text x="536" y="174" text-anchor="start" font-size="10" fill="#C53030" font-family="Courier New,monospace">pin 3  SYNC IN</text>
<circle cx="530" cy="195" r="4" fill="#C05621"/>
<text x="536" y="199" text-anchor="start" font-size="10" fill="#C05621" font-family="Courier New,monospace">pin 2  PAUSE IN</text>
<circle cx="530" cy="215" r="4" fill="#2B6CB0"/>
<text x="536" y="219" text-anchor="start" font-size="10" fill="#2B6CB0" font-family="Courier New,monospace">A4  SDA</text>
<circle cx="530" cy="235" r="4" fill="#276749"/>
<text x="536" y="239" text-anchor="start" font-size="10" fill="#276749" font-family="Courier New,monospace">A5  SCL</text>
<circle cx="740" cy="187" r="5" fill="#6B46C1"/>
<text x="655" y="191" text-anchor="start" font-size="10" fill="#6B46C1" font-family="Courier New,monospace">pin 8  ICP1</text>
<rect x="530" y="330" width="210" height="155" rx="6" ry="6" fill="#F0FFF4" stroke="#276749" stroke-width="2"/>
<rect x="530" y="330" width="210" height="24" rx="6" ry="6" fill="#276749"/>
<rect x="530" y="342" width="210" height="12" fill="#276749"/>
<text x="635" y="346" text-anchor="middle" font-size="11" font-weight="bold" fill="#FFFFFF">Arduino Nano #2</text>
<text x="635" y="374" text-anchor="middle" font-size="9" fill="#4A5568">(Addr 0x09, ID 2)</text>
<circle cx="530" cy="400" r="4" fill="#C53030"/>
<text x="536" y="404" text-anchor="start" font-size="10" fill="#C53030" font-family="Courier New,monospace">pin 3  SYNC IN</text>
<circle cx="530" cy="425" r="4" fill="#C05621"/>
<text x="536" y="429" text-anchor="start" font-size="10" fill="#C05621" font-family="Courier New,monospace">pin 2  PAUSE IN</text>
<circle cx="530" cy="445" r="4" fill="#2B6CB0"/>
<text x="536" y="449" text-anchor="start" font-size="10" fill="#2B6CB0" font-family="Courier New,monospace">A4  SDA</text>
<circle cx="530" cy="465" r="4" fill="#276749"/>
<text x="536" y="469" text-anchor="start" font-size="10" fill="#276749" font-family="Courier New,monospace">A5  SCL</text>
<circle cx="740" cy="417" r="5" fill="#6B46C1"/>
<text x="655" y="421" text-anchor="start" font-size="10" fill="#6B46C1" font-family="Courier New,monospace">pin 8  ICP1</text>
<rect x="530" y="560" width="210" height="155" rx="6" ry="6" fill="#F0FFF4" stroke="#276749" stroke-width="2"/>
<rect x="530" y="560" width="210" height="24" rx="6" ry="6" fill="#276749"/>
<rect x="530" y="572" width="210" height="12" fill="#276749"/>
<text x="635" y="576" text-anchor="middle" font-size="11" font-weight="bold" fill="#FFFFFF">Arduino Nano #8</text>
<text x="635" y="604" text-anchor="middle" font-size="9" fill="#4A5568">(Addr 0x0F, ID 8)</text>
<circle cx="530" cy="630" r="4" fill="#C53030"/>
<text x="536" y="634" text-anchor="start" font-size="10" fill="#C53030" font-family="Courier New,monospace">pin 3  SYNC IN</text>
<circle cx="530" cy="655" r="4" fill="#C05621"/>
<text x="536" y="659" text-anchor="start" font-size="10" fill="#C05621" font-family="Courier New,monospace">pin 2  PAUSE IN</text>
<circle cx="530" cy="675" r="4" fill="#2B6CB0"/>
<text x="536" y="679" text-anchor="start" font-size="10" fill="#2B6CB0" font-family="Courier New,monospace">A4  SDA</text>
<circle cx="530" cy="695" r="4" fill="#276749"/>
<text x="536" y="699" text-anchor="start" font-size="10" fill="#276749" font-family="Courier New,monospace">A5  SCL</text>
<circle cx="740" cy="647" r="5" fill="#6B46C1"/>
<text x="655" y="651" text-anchor="start" font-size="10" fill="#6B46C1" font-family="Courier New,monospace">pin 8  ICP1</text>
<rect x="520" y="295" width="230" height="20" rx="4" fill="#F0FFF4" stroke="#276749" stroke-width="1.2" stroke-dasharray="5,3"/>
<text x="635" y="309" text-anchor="middle" font-size="10" fill="#276749" font-style="italic">Nanos 3–7 identical (omitted for clarity)</text>
<rect x="830" y="137" width="190" height="80" rx="5" fill="#FAF5FF" stroke="#6B46C1" stroke-width="1.8"/>
<text x="925" y="155" text-anchor="middle" font-size="10" font-weight="bold" fill="#6B46C1">Scintillator + PMT</text>
<text x="925" y="172" text-anchor="middle" font-size="10" fill="#6B46C1">Discriminator</text>
<text x="925" y="189" text-anchor="middle" font-size="9" fill="#6B46C1">Active-low output</text>
<text x="925" y="203" text-anchor="middle" font-size="9" fill="#6B46C1">(FALLING edge → ICP1)</text>
<rect x="830" y="367" width="190" height="80" rx="5" fill="#FAF5FF" stroke="#6B46C1" stroke-width="1.8"/>
<text x="925" y="385" text-anchor="middle" font-size="10" font-weight="bold" fill="#6B46C1">Scintillator + PMT</text>
<text x="925" y="402" text-anchor="middle" font-size="10" fill="#6B46C1">Discriminator</text>
<text x="925" y="419" text-anchor="middle" font-size="9" fill="#6B46C1">Active-low output</text>
<text x="925" y="433" text-anchor="middle" font-size="9" fill="#6B46C1">(FALLING edge → ICP1)</text>
<rect x="830" y="597" width="190" height="80" rx="5" fill="#FAF5FF" stroke="#6B46C1" stroke-width="1.8"/>
<text x="925" y="615" text-anchor="middle" font-size="10" font-weight="bold" fill="#6B46C1">Scintillator + PMT</text>
<text x="925" y="632" text-anchor="middle" font-size="10" fill="#6B46C1">Discriminator</text>
<text x="925" y="649" text-anchor="middle" font-size="9" fill="#6B46C1">Active-low output</text>
<text x="925" y="663" text-anchor="middle" font-size="9" fill="#6B46C1">(FALLING edge → ICP1)</text>
<path d="M 260,190 L 330,190" fill="none" stroke="#C53030" stroke-width="2" stroke-linejoin="round"/>
<path d="M 260,245 L 360,245" fill="none" stroke="#C05621" stroke-width="2" stroke-linejoin="round"/>
<path d="M 260,320 L 400,320" fill="none" stroke="#2B6CB0" stroke-width="2" stroke-linejoin="round"/>
<path d="M 260,370 L 430,370" fill="none" stroke="#276749" stroke-width="2" stroke-linejoin="round"/>
<path d="M 330,155 L 330,695" fill="none" stroke="#C53030" stroke-width="2" stroke-linejoin="round"/>
<path d="M 360,155 L 360,695" fill="none" stroke="#C05621" stroke-width="2" stroke-linejoin="round"/>
<path d="M 400,155 L 400,695" fill="none" stroke="#2B6CB0" stroke-width="2" stroke-linejoin="round"/>
<path d="M 430,155 L 430,695" fill="none" stroke="#276749" stroke-width="2" stroke-linejoin="round"/>
<circle cx="330" cy="170" r="5" fill="#C53030"/>
<path d="M 330,170 L 530,170" fill="none" stroke="#C53030" stroke-width="1.8" stroke-linejoin="round"/>
<circle cx="360" cy="195" r="5" fill="#C05621"/>
<path d="M 360,195 L 530,195" fill="none" stroke="#C05621" stroke-width="1.8" stroke-linejoin="round"/>
<circle cx="400" cy="215" r="5" fill="#2B6CB0"/>
<path d="M 400,215 L 530,215" fill="none" stroke="#2B6CB0" stroke-width="1.8" stroke-linejoin="round"/>
<circle cx="430" cy="235" r="5" fill="#276749"/>
<path d="M 430,235 L 530,235" fill="none" stroke="#276749" stroke-width="1.8" stroke-linejoin="round"/>
<circle cx="330" cy="400" r="5" fill="#C53030"/>
<path d="M 330,400 L 530,400" fill="none" stroke="#C53030" stroke-width="1.8" stroke-linejoin="round"/>
<circle cx="360" cy="425" r="5" fill="#C05621"/>
<path d="M 360,425 L 530,425" fill="none" stroke="#C05621" stroke-width="1.8" stroke-linejoin="round"/>
<circle cx="400" cy="445" r="5" fill="#2B6CB0"/>
<path d="M 400,445 L 530,445" fill="none" stroke="#2B6CB0" stroke-width="1.8" stroke-linejoin="round"/>
<circle cx="430" cy="465" r="5" fill="#276749"/>
<path d="M 430,465 L 530,465" fill="none" stroke="#276749" stroke-width="1.8" stroke-linejoin="round"/>
<circle cx="330" cy="630" r="5" fill="#C53030"/>
<path d="M 330,630 L 530,630" fill="none" stroke="#C53030" stroke-width="1.8" stroke-linejoin="round"/>
<circle cx="360" cy="655" r="5" fill="#C05621"/>
<path d="M 360,655 L 530,655" fill="none" stroke="#C05621" stroke-width="1.8" stroke-linejoin="round"/>
<circle cx="400" cy="675" r="5" fill="#2B6CB0"/>
<path d="M 400,675 L 530,675" fill="none" stroke="#2B6CB0" stroke-width="1.8" stroke-linejoin="round"/>
<circle cx="430" cy="695" r="5" fill="#276749"/>
<path d="M 430,695 L 530,695" fill="none" stroke="#276749" stroke-width="1.8" stroke-linejoin="round"/>
<path d="M 830,187 L 740,187" fill="none" stroke="#6B46C1" stroke-width="2" stroke-linejoin="round"/>
<circle cx="830" cy="187" r="4" fill="#6B46C1"/>
<path d="M 830,417 L 740,417" fill="none" stroke="#6B46C1" stroke-width="2" stroke-linejoin="round"/>
<circle cx="830" cy="417" r="4" fill="#6B46C1"/>
<path d="M 830,647 L 740,647" fill="none" stroke="#6B46C1" stroke-width="2" stroke-linejoin="round"/>
<circle cx="830" cy="647" r="4" fill="#6B46C1"/>
<text x="500" y="84" text-anchor="middle" font-size="9" fill="#718096" font-weight="bold">GND</text>
<path d="M 500,90 L 500,740" fill="none" stroke="#718096" stroke-width="1.5" stroke-dasharray="4,3" stroke-linejoin="round"/>
<path d="M 260,440 L 500,440" fill="none" stroke="#718096" stroke-width="1.5" stroke-linejoin="round"/>
<circle cx="500" cy="440" r="4" fill="#718096"/>
<text x="506" y="754" text-anchor="start" font-size="9" fill="#718096" font-style="italic">All GNDs connected</text>
<rect x="50" y="830" width="550" height="110" rx="6" fill="#F7FAFC" stroke="#CBD5E0" stroke-width="1.2"/>
<text x="315" y="845" text-anchor="middle" font-size="12" font-weight="bold" fill="#2D3748">Wiring Legend</text>
<line x1="60" y1="862" x2="90" y2="862" stroke="#C53030" stroke-width="3"/>
<text x="96" y="866" font-size="10" fill="#2D3748">Sync pulse (Uno pin 6 → all Nanos pin 3)</text>
<line x1="60" y1="890" x2="90" y2="890" stroke="#C05621" stroke-width="3"/>
<text x="96" y="894" font-size="10" fill="#2D3748">Pause/resume (Uno pin 7 → all Nanos pin 2)  ← NEW in Phase 02</text>
<line x1="60" y1="918" x2="90" y2="918" stroke="#2B6CB0" stroke-width="3"/>
<text x="96" y="922" font-size="10" fill="#2D3748">I²C SDA (A4) with 2.2 kΩ pull-up to +5 V</text>
<line x1="330" y1="862" x2="360" y2="862" stroke="#276749" stroke-width="3"/>
<text x="366" y="866" font-size="10" fill="#2D3748">I²C SCL (A5) with 2.2 kΩ pull-up to +5 V</text>
<line x1="330" y1="890" x2="360" y2="890" stroke="#6B46C1" stroke-width="3"/>
<text x="366" y="894" font-size="10" fill="#2D3748">Particle pulse: discriminator → Nano pin 8 (ICP1)  ← MOVED from pin 2</text>
<line x1="330" y1="918" x2="360" y2="918" stroke="#718096" stroke-width="3"/>
<text x="366" y="922" font-size="10" fill="#2D3748">Common ground (all boards share GND)</text>
<rect x="60" y="780" width="720" height="54" rx="5" fill="#FFFBEB" stroke="#D69E2E" stroke-width="1.5"/>
<text x="70" y="796" font-size="11" font-weight="bold" fill="#744210">Phase 02 Hardware Changes (from Phase 01):</text>
<text x="70" y="812" font-size="10" fill="#744210">1.  Move particle pulse cable from Nano pin 2  →  Nano pin 8 (ICP1)  on every Nano.</text>
<text x="70" y="827" font-size="10" fill="#744210">2.  Add new shared wire: Uno pin 7  →  all Nanos pin 2  (pause/resume line).</text>
</svg>